<?xml version="1.0" encoding="UTF-8"?>
<svg xmlns="http://www.w3.org/2000/svg" version="1.1" width="500" height="500" viewBox="0 0 500 500"><rect x="0" y="0" width="500" height="500" fill="#ffffff"/><g transform="scale(16.129)"><g transform="translate(1,1)"><g><g transform="translate(3.5,3.5)"><path fill-rule="evenodd" d="M-3.5 -3.5L3.5 -3.5L3.5 3.5L-3.5 3.5ZM-2.5 -2.5L-2.5 2.5L2.5 2.5L2.5 -2.5Z" fill="#000000"/><path fill-rule="evenodd" d="M-1.5 -1.5L1.5 -1.5L1.5 1.5L-1.5 1.5Z" fill="#000000"/></g></g><g><g transform="translate(25.5,3.5)"><g transform="rotate(90)"><path fill-rule="evenodd" d="M-3.5 -3.5L3.5 -3.5L3.5 3.5L-3.5 3.5ZM-2.5 -2.5L-2.5 2.5L2.5 2.5L2.5 -2.5Z" fill="#000000"/><path fill-rule="evenodd" d="M-1.5 -1.5L1.5 -1.5L1.5 1.5L-1.5 1.5Z" fill="#000000"/></g></g></g><g><g transform="translate(3.5,25.5)"><g transform="rotate(-90)"><path fill-rule="evenodd" d="M-3.5 -3.5L3.5 -3.5L3.5 3.5L-3.5 3.5ZM-2.5 -2.5L-2.5 2.5L2.5 2.5L2.5 -2.5Z" fill="#000000"/><path fill-rule="evenodd" d="M-1.5 -1.5L1.5 -1.5L1.5 1.5L-1.5 1.5Z" fill="#000000"/></g></g></g><path fill-rule="evenodd" d="M9 0L9 2L8 2L8 8L9 8L9 9L11 9L11 10L10 10L10 11L11 11L11 12L14 12L14 13L15 13L15 14L16 14L16 15L17 15L17 16L18 16L18 18L17 18L17 17L16 17L16 16L15 16L15 15L14 15L14 16L15 16L15 17L13 17L13 15L12 15L12 14L11 14L11 15L10 15L10 12L8 12L8 11L7 11L7 10L6 10L6 9L7 9L7 8L2 8L2 9L1 9L1 8L0 8L0 10L3 10L3 11L2 11L2 15L1 15L1 16L0 16L0 21L1 21L1 18L2 18L2 15L3 15L3 17L4 17L4 14L5 14L5 16L6 16L6 17L10 17L10 16L12 16L12 17L13 17L13 19L12 19L12 18L11 18L11 19L10 19L10 18L5 18L5 20L4 20L4 18L3 18L3 19L2 19L2 21L7 21L7 20L6 20L6 19L9 19L9 20L10 20L10 21L11 21L11 19L12 19L12 21L13 21L13 20L14 20L14 21L15 21L15 23L14 23L14 24L15 24L15 25L14 25L14 26L13 26L13 25L10 25L10 24L9 24L9 23L8 23L8 27L9 27L9 28L8 28L8 29L9 29L9 28L10 28L10 29L17 29L17 28L15 28L15 27L18 27L18 29L20 29L20 28L19 28L19 27L18 27L18 26L19 26L19 25L20 25L20 26L21 26L21 25L23 25L23 27L24 27L24 25L25 25L25 23L26 23L26 25L29 25L29 23L27 23L27 22L28 22L28 20L29 20L29 19L28 19L28 18L29 18L29 17L27 17L27 18L26 18L26 17L24 17L24 16L25 16L25 15L27 15L27 16L29 16L29 14L28 14L28 13L27 13L27 14L26 14L26 13L24 13L24 12L26 12L26 11L27 11L27 10L28 10L28 9L27 9L27 8L22 8L22 9L24 9L24 10L25 10L25 11L19 11L19 10L21 10L21 6L20 6L20 7L19 7L19 4L18 4L18 3L16 3L16 0L15 0L15 1L14 1L14 0L13 0L13 1L11 1L11 2L10 2L10 0ZM19 0L19 1L17 1L17 2L19 2L19 3L20 3L20 5L21 5L21 3L20 3L20 1L21 1L21 0ZM11 2L11 3L12 3L12 2ZM14 2L14 3L13 3L13 5L11 5L11 7L10 7L10 5L9 5L9 8L12 8L12 11L13 11L13 9L15 9L15 10L16 10L16 9L15 9L15 8L16 8L16 6L17 6L17 7L18 7L18 8L17 8L17 10L18 10L18 8L19 8L19 9L20 9L20 8L19 8L19 7L18 7L18 6L17 6L17 5L18 5L18 4L16 4L16 6L15 6L15 4L14 4L14 3L15 3L15 2ZM12 6L12 8L13 8L13 6ZM14 6L14 8L15 8L15 6ZM26 9L26 10L27 10L27 9ZM5 10L5 11L6 11L6 12L4 12L4 11L3 11L3 14L4 14L4 13L6 13L6 14L9 14L9 13L8 13L8 12L7 12L7 11L6 11L6 10ZM0 11L0 12L1 12L1 11ZM14 11L14 12L19 12L19 13L16 13L16 14L19 14L19 15L18 15L18 16L19 16L19 19L17 19L17 18L16 18L16 17L15 17L15 18L16 18L16 19L14 19L14 20L16 20L16 21L17 21L17 22L16 22L16 23L15 23L15 24L16 24L16 26L18 26L18 25L17 25L17 24L18 24L18 23L19 23L19 22L20 22L20 20L19 20L19 19L20 19L20 18L21 18L21 19L23 19L23 18L24 18L24 19L25 19L25 20L27 20L27 19L25 19L25 18L24 18L24 17L23 17L23 18L21 18L21 17L22 17L22 16L19 16L19 15L25 15L25 14L24 14L24 13L23 13L23 14L21 14L21 13L22 13L22 12L21 12L21 13L20 13L20 12L19 12L19 11ZM28 11L28 12L29 12L29 11ZM6 12L6 13L7 13L7 12ZM6 15L6 16L7 16L7 15ZM8 15L8 16L9 16L9 15ZM16 19L16 20L17 20L17 21L18 21L18 22L17 22L17 23L16 23L16 24L17 24L17 23L18 23L18 22L19 22L19 20L17 20L17 19ZM8 21L8 22L9 22L9 21ZM21 21L21 24L24 24L24 21ZM25 21L25 22L27 22L27 21ZM10 22L10 23L11 23L11 22ZM12 22L12 24L13 24L13 22ZM22 22L22 23L23 23L23 22ZM9 26L9 27L11 27L11 28L14 28L14 27L15 27L15 26L14 26L14 27L12 27L12 26ZM26 26L26 27L25 27L25 28L24 28L24 29L27 29L27 27L28 27L28 28L29 28L29 27L28 27L28 26ZM21 28L21 29L23 29L23 28Z" fill="#000000"/></g></g></svg>
